<svg version="1.1" xmlns="http://www.w3.org/2000/svg" viewBox="0 0 608 767" width="608" height="767">
  <!-- svg-source:excalidraw -->
  
  <defs>
    <style class="style-fonts">
      @font-face {
        font-family: "Virgil";
        src: url("https://excalidraw.com/Virgil.woff2");
      }
      @font-face {
        font-family: "Cascadia";
        src: url("https://excalidraw.com/Cascadia.woff2");
      }
    </style>
    
  </defs>
  <rect x="0" y="0" width="608" height="767" fill="#ffffff"></rect><g stroke-linecap="round" transform="translate(273 615) rotate(0 28.5 45.5)"><path d="M14.25 0 M14.25 0 C23.36 -1.73, 31.34 -0.59, 42.75 0 M14.25 0 C21.68 0.07, 27.45 -1.05, 42.75 0 M42.75 0 C54.14 1.68, 58.1 4.19, 57 14.25 M42.75 0 C52.89 1.15, 58.59 2.88, 57 14.25 M57 14.25 C56.68 34.06, 58.15 51.84, 57 76.75 M57 14.25 C56.31 27.32, 57.38 39.31, 57 76.75 M57 76.75 C57.26 85.29, 51.94 90.42, 42.75 91 M57 76.75 C57 84.16, 54.21 92.51, 42.75 91 M42.75 91 C33.87 90.5, 25.93 89.92, 14.25 91 M42.75 91 C35.88 90.29, 27.82 91.37, 14.25 91 M14.25 91 C5.62 91.71, -1.4 86.79, 0 76.75 M14.25 91 C7.02 91.37, -1.56 86.56, 0 76.75 M0 76.75 C0.24 52.75, 1.56 26.41, 0 14.25 M0 76.75 C-0.39 63.65, -0.96 49.28, 0 14.25 M0 14.25 C0.6 6.37, 3.16 0.4, 14.25 0 M0 14.25 C0.01 2.95, 4.69 -1.81, 14.25 0" stroke="#1e1e1e" stroke-width="1" fill="none"></path></g><g stroke-linecap="round" transform="translate(276 546) rotate(0 26.5 24)"><path d="M38.16 2.51 C43.19 4.45, 48.53 9.81, 50.65 14.73 C52.78 19.64, 52.43 27.09, 50.9 31.97 C49.37 36.86, 46.07 41.31, 41.49 44.06 C36.9 46.8, 29.19 49.12, 23.39 48.43 C17.59 47.75, 10.62 43.94, 6.68 39.95 C2.75 35.96, 0.06 29.45, -0.2 24.52 C-0.46 19.58, 1.66 14.18, 5.12 10.34 C8.59 6.49, 14.55 2.33, 20.58 1.45 C26.61 0.58, 37.24 4.05, 41.31 5.07 C45.38 6.1, 45.11 7.48, 45.02 7.6 M29.06 0.42 C34.45 0.62, 43.51 3.37, 47.58 7.14 C51.66 10.91, 53.42 17.6, 53.5 23.02 C53.58 28.44, 51.73 35.77, 48.09 39.64 C44.45 43.52, 37.06 45.55, 31.64 46.27 C26.21 46.99, 20.44 45.98, 15.54 43.96 C10.64 41.94, 4.73 38.67, 2.25 34.17 C-0.22 29.66, -1.08 21.8, 0.68 16.93 C2.44 12.05, 8.11 7.65, 12.81 4.91 C17.51 2.18, 26.02 1.42, 28.89 0.52 C31.75 -0.38, 29.88 -0.63, 30.01 -0.48" stroke="#1e1e1e" stroke-width="1" fill="none"></path></g><g stroke-linecap="round" transform="translate(10 261) rotate(0 294 105.5)"><path d="M7.86 8.16 C7.86 8.16, 7.86 8.16, 7.86 8.16 M7.86 8.16 C7.86 8.16, 7.86 8.16, 7.86 8.16 M3.66 19.09 C9.7 14.5, 12.88 7.1, 18.1 2.48 M3.66 19.09 C7.34 14.96, 11.59 8.86, 18.1 2.48 M2.75 26.24 C10.44 15.87, 18.45 7.16, 24.4 1.33 M2.75 26.24 C7.54 21.12, 14.35 13.48, 24.4 1.33 M2.48 32.64 C10.16 22.07, 16.39 16.84, 30.7 0.18 M2.48 32.64 C11.51 22.83, 18.98 14.38, 30.7 0.18 M2.88 38.28 C14.44 25.17, 24.9 13.59, 34.37 2.05 M2.88 38.28 C10.64 29.57, 17.18 21.12, 34.37 2.05 M2.62 44.68 C14.46 30.91, 24.06 22.2, 39.36 2.41 M2.62 44.68 C10.63 36.19, 17.83 26.32, 39.36 2.41 M2.36 51.07 C21.24 30.78, 38.14 14.1, 45 2.02 M2.36 51.07 C11.71 38.74, 20.53 28.03, 45 2.02 M2.75 56.72 C13.22 43.53, 26.12 29.29, 49.99 2.38 M2.75 56.72 C15.74 43.49, 27.31 28.03, 49.99 2.38 M2.49 63.11 C23.73 38.92, 44.91 12.86, 55.63 1.98 M2.49 63.11 C13.67 49.35, 28.08 34.36, 55.63 1.98 M2.88 68.76 C26.82 42.43, 45.58 19.51, 60.62 2.34 M2.88 68.76 C16.01 54.64, 29.72 38.08, 60.62 2.34 M2.62 75.16 C26.55 46.84, 48.44 23.55, 66.26 1.95 M2.62 75.16 C20.83 53.51, 38.98 31.64, 66.26 1.95 M2.36 81.55 C16.57 62.95, 34.59 44.3, 71.25 2.31 M2.36 81.55 C19.74 60.49, 38.35 39.84, 71.25 2.31 M2.76 87.2 C20.56 65.12, 38.62 45.31, 76.89 1.91 M2.76 87.2 C30.15 55.6, 55.92 25.22, 76.89 1.91 M2.49 93.59 C23.39 70.48, 39.46 46.37, 81.88 2.27 M2.49 93.59 C20.74 71.65, 39.97 50.49, 81.88 2.27 M2.89 99.24 C37.04 64.8, 65.25 26.12, 87.52 1.88 M2.89 99.24 C33.52 65.46, 63.33 29.84, 87.52 1.88 M2.63 105.64 C26.58 77.41, 55.09 46.92, 92.51 2.24 M2.63 105.64 C22.36 84.42, 40.82 61.51, 92.51 2.24 M2.37 112.03 C41.12 70.41, 74.63 28.2, 98.15 1.85 M2.37 112.03 C37.42 72.86, 72 34.73, 98.15 1.85 M2.76 117.68 C33.81 81.92, 67.7 44.93, 103.14 2.21 M2.76 117.68 C42.04 72.1, 80.86 27.11, 103.14 2.21 M2.5 124.07 C29.57 91.8, 57.55 63.16, 108.78 1.81 M2.5 124.07 C44.03 76.92, 84.29 28.78, 108.78 1.81 M2.89 129.72 C27.75 99.29, 55.1 69.02, 113.77 2.17 M2.89 129.72 C38.15 86.88, 74.15 44.63, 113.77 2.17 M2.63 136.11 C44.38 92.53, 82.65 45.49, 119.41 1.78 M2.63 136.11 C32.03 101.53, 62.74 68.06, 119.41 1.78 M2.37 142.51 C39.82 99.31, 78.22 54.17, 124.4 2.14 M2.37 142.51 C45.16 93.06, 86.47 44.9, 124.4 2.14 M2.77 148.16 C45.69 99.89, 87.16 49.52, 130.04 1.74 M2.77 148.16 C40.09 104.67, 77.55 61.72, 130.04 1.74 M2.5 154.55 C50.45 95.8, 100.99 40.61, 135.03 2.1 M2.5 154.55 C46.23 105.67, 88.38 56.31, 135.03 2.1 M2.9 160.2 C35.77 121.03, 68.4 85.97, 140.67 1.71 M2.9 160.2 C31.29 128.22, 57.37 96.16, 140.67 1.71 M2.64 166.59 C49.49 112.2, 97.9 56.38, 145.66 2.07 M2.64 166.59 C42.12 121.21, 81.61 76.12, 145.66 2.07 M2.38 172.99 C35.63 133.69, 72.33 95.63, 150.65 2.43 M2.38 172.99 C38.44 132.11, 73.76 91.22, 150.65 2.43 M2.77 178.64 C47.19 127.03, 91.38 72.74, 156.29 2.03 M2.77 178.64 C64.97 106.87, 124.8 36.06, 156.29 2.03 M1.2 186.54 C35.96 145.42, 74.48 102.53, 161.28 2.39 M1.2 186.54 C38.88 142.38, 74.59 101.28, 161.28 2.39 M2.25 191.43 C50.8 135.97, 98.68 83.45, 166.92 2 M2.25 191.43 C40.51 147.33, 79.2 102.99, 166.92 2 M3.95 195.56 C50.19 139.36, 95.95 86.92, 171.91 2.36 M3.95 195.56 C59.59 129.92, 115.22 65.52, 171.91 2.36 M5.66 199.7 C60.16 140.12, 109.71 79.58, 177.55 1.96 M5.66 199.7 C52.4 143.55, 101.77 88.33, 177.55 1.96 M8.68 202.32 C75.43 127.05, 144.1 48.89, 182.54 2.32 M8.68 202.32 C56.64 147.19, 104.35 90.91, 182.54 2.32 M11.7 204.95 C53.52 152.4, 99.81 103.88, 188.18 1.93 M11.7 204.95 C81.45 123.95, 150.93 44.92, 188.18 1.93 M14.06 208.33 C66.22 148.06, 118.22 89.19, 193.17 2.29 M14.06 208.33 C75.83 137.6, 140.11 64.86, 193.17 2.29 M18.39 209.44 C88.45 126.17, 159.22 43.8, 198.81 1.9 M18.39 209.44 C88.14 131.1, 155.83 52.09, 198.81 1.9 M23.38 209.8 C75.56 150.07, 128.77 89.9, 203.8 2.26 M23.38 209.8 C93.83 129.57, 163.14 48.69, 203.8 2.26 M27.71 210.92 C92.46 137.58, 155.23 61.26, 209.44 1.86 M27.71 210.92 C65.58 165.38, 103.28 121.17, 209.44 1.86 M32.7 211.28 C71.33 169, 107.78 129.46, 214.43 2.22 M32.7 211.28 C101.81 129.75, 173.33 48.49, 214.43 2.22 M37.68 211.64 C87.4 156.54, 135.03 98.89, 220.07 1.83 M37.68 211.64 C77.3 169.07, 114.78 124.83, 220.07 1.83 M43.33 211.24 C80.72 166.25, 119.22 123.9, 225.06 2.19 M43.33 211.24 C98.13 146.91, 152.71 84.97, 225.06 2.19 M48.31 211.6 C96.58 160.17, 140.37 105.76, 230.7 1.79 M48.31 211.6 C93.59 158.64, 140.58 104.73, 230.7 1.79 M53.96 211.21 C95.02 163.89, 136.06 115.01, 235.69 2.15 M53.96 211.21 C94.2 162.51, 136.7 114.5, 235.69 2.15 M58.94 211.57 C119.6 143.23, 179.19 72.53, 241.33 1.76 M58.94 211.57 C128.85 133.1, 197.22 54.04, 241.33 1.76 M64.59 211.17 C123.32 144.68, 181 78.7, 246.32 2.12 M64.59 211.17 C109.09 161.6, 153.72 109.84, 246.32 2.12 M69.57 211.53 C122.72 148.34, 176.08 85.6, 251.96 1.72 M69.57 211.53 C139.71 132.81, 208.06 52.46, 251.96 1.72 M75.22 211.14 C131 147.94, 183.37 85.63, 256.95 2.08 M75.22 211.14 C141.59 133.61, 207.08 57.3, 256.95 2.08 M80.2 211.5 C131.55 154.08, 180.69 98.25, 262.59 1.69 M80.2 211.5 C116.53 167.92, 154.13 125.93, 262.59 1.69 M85.85 211.1 C139.75 146.37, 194.36 83.37, 267.58 2.05 M85.85 211.1 C151.46 136.03, 216.75 59.09, 267.58 2.05 M90.83 211.46 C151.86 140.31, 212.39 70.99, 272.56 2.41 M90.83 211.46 C156 137.32, 220.87 61.88, 272.56 2.41 M95.82 211.82 C136.7 161.72, 178.05 112.69, 278.21 2.01 M95.82 211.82 C164.79 132.71, 234.01 53.68, 278.21 2.01 M101.47 211.43 C156 151.03, 211.09 87.55, 283.19 2.37 M101.47 211.43 C156.12 149.33, 210.06 86.12, 283.19 2.37 M106.45 211.79 C163.82 144.49, 221.54 74.79, 288.84 1.98 M106.45 211.79 C160.28 148.89, 214.58 86.61, 288.84 1.98 M112.1 211.39 C168.52 144.02, 227.72 77.31, 293.82 2.34 M112.1 211.39 C157.42 157.86, 203.15 106.11, 293.82 2.34 M117.08 211.75 C181.46 136.53, 247.75 63.42, 299.47 1.94 M117.08 211.75 C183.89 133.96, 250.2 58.19, 299.47 1.94 M122.73 211.36 C177.53 148.88, 233.51 85.56, 304.45 2.3 M122.73 211.36 C191.25 133.25, 261.5 53.18, 304.45 2.3 M127.71 211.72 C173.29 158.44, 219.66 105.75, 310.1 1.91 M127.71 211.72 C198.44 131.77, 268.33 50.38, 310.1 1.91 M133.36 211.32 C187.36 146.82, 242.01 85.32, 315.08 2.27 M133.36 211.32 C172.46 165.12, 211.46 118.7, 315.08 2.27 M138.34 211.69 C192.47 149.38, 244.77 87.69, 320.73 1.88 M138.34 211.69 C193.91 146.22, 250.53 81.67, 320.73 1.88 M143.99 211.29 C195.5 148.71, 249.71 87.95, 325.71 2.24 M143.99 211.29 C190.29 157.48, 236.79 105.45, 325.71 2.24 M148.97 211.65 C202.22 153.13, 254.37 95.51, 331.36 1.84 M148.97 211.65 C195.87 157.69, 242.42 103.46, 331.36 1.84 M154.62 211.26 C192.35 165.29, 232.7 122.6, 336.34 2.2 M154.62 211.26 C215.63 143.88, 275.11 75.67, 336.34 2.2 M159.6 211.62 C228.65 132.57, 296.04 56.3, 341.99 1.81 M159.6 211.62 C215.74 148.84, 269.07 86.3, 341.99 1.81 M165.25 211.22 C227.58 138.74, 291.89 62.58, 346.97 2.17 M165.25 211.22 C208.82 161.4, 251.71 112, 346.97 2.17 M170.23 211.58 C220.83 155.19, 269.47 97.48, 352.62 1.77 M170.23 211.58 C217.9 156.29, 265.6 102.79, 352.62 1.77 M175.88 211.19 C234.84 142.2, 296.03 74.03, 357.6 2.13 M175.88 211.19 C236.53 139.78, 297.77 68.84, 357.6 2.13 M180.86 211.55 C217.81 168.19, 257.33 121.34, 363.25 1.74 M180.86 211.55 C240.05 142.76, 297.67 75.3, 363.25 1.74 M186.51 211.15 C240.04 149.6, 295.65 88.61, 368.23 2.1 M186.51 211.15 C248.77 139.29, 310.8 67.23, 368.23 2.1 M191.49 211.51 C263.8 128.19, 334.12 45.23, 373.88 1.7 M191.49 211.51 C233.08 164.05, 274.03 117.04, 373.88 1.7 M197.14 211.12 C265.52 132.85, 333.66 53.9, 378.86 2.06 M197.14 211.12 C255.99 144.75, 313.51 78.27, 378.86 2.06 M202.12 211.48 C264.51 140.94, 328.23 67.41, 383.85 2.42 M202.12 211.48 C252.74 154.13, 301.84 98.26, 383.85 2.42 M207.11 211.84 C246.81 167.58, 286.51 119.48, 389.49 2.03 M207.11 211.84 C257.61 152.17, 309.8 93.22, 389.49 2.03 M212.75 211.44 C274.19 141.25, 334.44 70.69, 394.48 2.39 M212.75 211.44 C266.83 146.92, 321.43 84.73, 394.48 2.39 M217.74 211.8 C259.45 167.04, 299.17 120.66, 400.12 1.99 M217.74 211.8 C257.89 164.45, 298.34 116.94, 400.12 1.99 M223.38 211.41 C293.76 129.64, 362.15 48.99, 405.11 2.35 M223.38 211.41 C284.4 143.12, 343.93 73.74, 405.11 2.35 M228.37 211.77 C284.88 144.02, 343.23 77.84, 410.75 1.96 M228.37 211.77 C277.77 154.52, 328.17 97.03, 410.75 1.96 M234.01 211.37 C280.69 157.63, 327.92 103.5, 415.74 2.32 M234.01 211.37 C292.84 145.26, 351.03 79.51, 415.74 2.32 M239 211.73 C313.85 125.9, 385.96 44.29, 421.38 1.93 M239 211.73 C297.41 144.96, 356.78 77.49, 421.38 1.93 M244.64 211.34 C291.42 156.5, 336.83 101.58, 426.37 2.29 M244.64 211.34 C314.62 129.64, 384.77 48.15, 426.37 2.29 M249.63 211.7 C301.63 151.82, 355.07 90.63, 432.01 1.89 M249.63 211.7 C291.5 165.27, 332.77 118.42, 432.01 1.89 M255.27 211.31 C299.37 162.37, 343.47 110.77, 437 2.25 M255.27 211.31 C293.7 165.35, 332.7 120.55, 437 2.25 M260.26 211.67 C327.62 134.93, 395.4 56.7, 442.64 1.86 M260.26 211.67 C329.86 132.59, 398.29 52.39, 442.64 1.86 M265.9 211.27 C337.38 127.38, 411.95 42.77, 447.63 2.22 M265.9 211.27 C307.18 163.9, 348.3 115.77, 447.63 2.22 M270.89 211.63 C332.94 140.62, 396.93 69.16, 453.27 1.82 M270.89 211.63 C333.98 137.02, 399.41 63.51, 453.27 1.82 M276.53 211.24 C325.08 158.44, 370.86 104.32, 458.26 2.18 M276.53 211.24 C317.18 162.99, 359.27 115.17, 458.26 2.18 M281.52 211.6 C333.77 153.92, 381.19 99.09, 463.9 1.79 M281.52 211.6 C328.53 156.85, 374.51 102.73, 463.9 1.79 M287.16 211.2 C344.54 144.88, 401.22 78.07, 468.89 2.15 M287.16 211.2 C352.61 136.06, 417.08 62.94, 468.89 2.15 M292.15 211.56 C360.06 135.22, 425.14 59.73, 474.53 1.75 M292.15 211.56 C357.89 134.8, 425.59 57.28, 474.53 1.75 M297.79 211.17 C367.83 127.75, 439.39 47.87, 479.52 2.11 M297.79 211.17 C352.49 147.09, 408.9 83.47, 479.52 2.11 M302.78 211.53 C367.97 134.42, 436.38 58.78, 485.17 1.72 M302.78 211.53 C360.31 146.08, 417.23 80.42, 485.17 1.72 M308.42 211.13 C353.49 159.77, 397.94 108.68, 490.15 2.08 M308.42 211.13 C370.34 139.4, 432.81 68.82, 490.15 2.08 M313.41 211.49 C379.47 132.83, 447.96 57.05, 495.8 1.68 M313.41 211.49 C366.7 151.34, 418.92 91.04, 495.8 1.68 M319.05 211.1 C356.09 168.41, 393.57 125.81, 500.78 2.04 M319.05 211.1 C369.8 153.98, 419.49 96.92, 500.78 2.04 M324.04 211.46 C393.26 129.42, 465.31 48.21, 505.77 2.4 M324.04 211.46 C366.64 165.04, 406.52 119.31, 505.77 2.4 M329.03 211.82 C385.86 146.92, 439.95 80.59, 511.41 2.01 M329.03 211.82 C377.6 153.85, 429.15 96.04, 511.41 2.01 M334.67 211.42 C378.25 161.22, 421.25 113.67, 516.4 2.37 M334.67 211.42 C374.65 165.11, 414.37 117.91, 516.4 2.37 M339.66 211.78 C408.34 134.56, 474.3 54.56, 522.04 1.98 M339.66 211.78 C390.96 153.14, 441.48 94.14, 522.04 1.98 M345.3 211.39 C382.38 167.23, 419.62 123.91, 527.03 2.34 M345.3 211.39 C408.16 141.8, 468.15 70.82, 527.03 2.34 M350.29 211.75 C410.34 142.2, 472.46 73.39, 532.67 1.94 M350.29 211.75 C415.22 137.7, 481.02 62.14, 532.67 1.94 M355.93 211.36 C422.98 130.93, 493.46 50.32, 537.66 2.3 M355.93 211.36 C425.11 131.03, 494.57 50.74, 537.66 2.3 M360.92 211.72 C411.45 156.28, 459.93 99.08, 543.3 1.91 M360.92 211.72 C425.15 137.66, 490.9 63.49, 543.3 1.91 M366.56 211.32 C431.31 136.74, 494.5 63.69, 548.29 2.27 M366.56 211.32 C424.94 143.48, 484.07 75.57, 548.29 2.27 M371.55 211.68 C411.95 162.66, 454.14 117.17, 553.93 1.87 M371.55 211.68 C421.12 156.25, 469.9 98.9, 553.93 1.87 M377.19 211.29 C428.2 149.99, 484.42 89.67, 558.92 2.23 M377.19 211.29 C429.64 151.85, 482.64 90.99, 558.92 2.23 M382.18 211.65 C450.34 132.94, 518.04 53.92, 563.25 3.35 M382.18 211.65 C425.82 159.93, 468.87 109.15, 563.25 3.35 M387.82 211.25 C439.33 150.94, 491.43 90.32, 568.24 3.71 M387.82 211.25 C451.57 138.5, 515.18 65.1, 568.24 3.71 M392.81 211.61 C433.95 165.22, 474.28 116.72, 572.57 4.82 M392.81 211.61 C462.69 130.52, 533.17 48.43, 572.57 4.82 M398.45 211.22 C467.75 134.29, 535.56 56.99, 576.24 6.69 M398.45 211.22 C461.32 139.54, 522.5 68.67, 576.24 6.69 M403.44 211.58 C450.05 159.96, 495.57 107.36, 579.92 8.56 M403.44 211.58 C471.31 134.52, 538.75 58.1, 579.92 8.56 M409.08 211.18 C470.87 141.89, 533.24 71.34, 582.94 11.18 M409.08 211.18 C455.79 156.81, 503.84 103.3, 582.94 11.18 M414.07 211.54 C461 158.79, 505.27 104.67, 585.3 14.56 M414.07 211.54 C451.98 168.14, 490.32 123.29, 585.3 14.56 M419.71 211.15 C476.75 147.4, 532.75 82.58, 587.01 18.7 M419.71 211.15 C466.83 159.04, 512.16 105.19, 587.01 18.7 M424.7 211.51 C456.59 175.04, 487.55 137.49, 588.71 22.83 M424.7 211.51 C473.17 153.21, 523.67 95.45, 588.71 22.83 M430.34 211.11 C493.67 137.37, 558.39 61.77, 590.42 26.96 M430.34 211.11 C472.16 164.1, 513.92 117.47, 590.42 26.96 M435.33 211.47 C488 150.07, 543.5 86.23, 590.16 33.36 M435.33 211.47 C490.21 149.03, 544.86 85.8, 590.16 33.36 M440.32 211.83 C495.57 150.36, 547.6 87.75, 590.55 39.01 M440.32 211.83 C482.71 161.78, 524.35 113.32, 590.55 39.01 M445.96 211.44 C500.52 150.23, 551.99 88.23, 590.29 45.4 M445.96 211.44 C482.87 168.85, 521.06 126.21, 590.29 45.4 M450.95 211.8 C502.41 152.56, 557.38 91.91, 590.69 51.05 M450.95 211.8 C502.21 151.55, 552.12 92.28, 590.69 51.05 M456.59 211.4 C484.02 177.24, 514.41 142.82, 590.42 57.44 M456.59 211.4 C490.84 172.08, 525.4 132.25, 590.42 57.44 M461.58 211.77 C505.53 160.03, 552.14 108.25, 590.82 63.09 M461.58 211.77 C500.17 168.44, 537.74 125.36, 590.82 63.09 M467.22 211.37 C497.81 178.3, 527.28 141.51, 590.56 69.49 M467.22 211.37 C511.54 159.75, 556.67 107.97, 590.56 69.49 M472.21 211.73 C510.15 165.67, 551.39 120.04, 590.3 75.88 M472.21 211.73 C515.53 161.99, 558.83 111.88, 590.3 75.88 M477.85 211.34 C512.28 173.53, 543.41 135.47, 590.69 81.53 M477.85 211.34 C515.05 168.27, 553.65 124.34, 590.69 81.53 M482.84 211.7 C518.89 171.66, 550.23 132.43, 590.43 87.92 M482.84 211.7 C514.64 175.36, 546.98 137.84, 590.43 87.92 M488.48 211.3 C529.02 166.53, 567.62 120.07, 590.82 93.57 M488.48 211.3 C519.01 177.33, 547.06 144.07, 590.82 93.57 M493.47 211.66 C513.13 186.29, 536.46 163.22, 590.56 99.96 M493.47 211.66 C525.97 175.69, 556.78 140.54, 590.56 99.96 M499.11 211.27 C523.86 180.57, 550.85 150.09, 590.96 105.61 M499.11 211.27 C524.32 183.29, 550.06 154.65, 590.96 105.61 M504.1 211.63 C533.04 179.05, 561.48 141.79, 590.7 112.01 M504.1 211.63 C524.32 188.15, 544.73 165, 590.7 112.01 M509.74 211.23 C531.78 183.55, 557.46 158.42, 590.43 118.4 M509.74 211.23 C537.82 180.07, 565.01 148.91, 590.43 118.4 M514.73 211.59 C538.29 187.82, 558.49 160.73, 590.83 124.05 M514.73 211.59 C545.14 177.07, 574.79 142.96, 590.83 124.05 M520.37 211.2 C537.19 194.05, 552.93 175.69, 590.57 130.44 M520.37 211.2 C538.5 189.57, 556.78 169.97, 590.57 130.44 M525.36 211.56 C539.56 194.61, 555.35 177.49, 590.96 136.09 M525.36 211.56 C545.66 189.3, 566.43 165.51, 590.96 136.09 M531 211.16 C547.24 191.47, 568.08 170.72, 590.7 142.48 M531 211.16 C552.62 184.73, 575.25 159.94, 590.7 142.48 M535.99 211.52 C552.8 191.36, 567.05 175.02, 591.1 148.13 M535.99 211.52 C549.51 195.56, 561.74 180.04, 591.1 148.13 M541.63 211.13 C553.05 196.99, 567.56 184.77, 590.83 154.53 M541.63 211.13 C561.23 189.06, 579.4 168.07, 590.83 154.53 M546.62 211.49 C558.65 195.38, 573.13 180.25, 590.57 160.92 M546.62 211.49 C556.39 199.91, 566.63 188.87, 590.57 160.92 M552.26 211.09 C565.08 196.64, 579.67 182.77, 590.97 166.57 M552.26 211.09 C564.34 197.36, 577.71 182.36, 590.97 166.57 M557.25 211.45 C567.68 200.31, 574.7 191.05, 590.71 172.96 M557.25 211.45 C564.68 203.71, 571.66 193.98, 590.71 172.96 M562.89 211.06 C573.14 200.43, 583.2 186.28, 589.79 180.12 M562.89 211.06 C568.95 203.23, 573.98 197.86, 589.79 180.12 M569.19 209.91 C575.28 203.45, 583.26 195.11, 588.21 188.02 M569.19 209.91 C576.68 201.3, 583.7 193.53, 588.21 188.02" stroke="#ffc9c9" stroke-width="0.5" fill="none"></path><path d="M32 0 M32 0 C204.29 1.84, 376.34 1.52, 556 0 M32 0 C154.46 -0.45, 276.66 -0.47, 556 0 M556 0 C578.52 -0.31, 586.79 10.52, 588 32 M556 0 C576.25 1.18, 586.47 8.89, 588 32 M588 32 C589.03 91.78, 589.5 149.62, 588 179 M588 32 C586.76 87.59, 586.13 142.82, 588 179 M588 179 C587.65 199.7, 579.05 212.55, 556 211 M588 179 C587.51 198.12, 575.2 211.71, 556 211 M556 211 C431.03 212.15, 307.01 212.48, 32 211 M556 211 C417.11 209.79, 278.14 209.17, 32 211 M32 211 C9.11 212.52, 1.65 199.03, 0 179 M32 211 C12.43 209.5, -0.6 201.86, 0 179 M0 179 C-0.38 148, 0.7 119.68, 0 32 M0 179 C-0.79 139.95, 0.07 99.32, 0 32 M0 32 C0.12 10.64, 10.73 1.83, 32 0 M0 32 C0.06 9.95, 8.59 0.37, 32 0" stroke="#1e1e1e" stroke-width="1" fill="none"></path></g><g transform="translate(15 266) rotate(0 23.54166603088379 12.5)"><text x="0" y="0" font-family="Virgil, Segoe UI Emoji" font-size="20px" fill="#1e1e1e" text-anchor="start" style="white-space: pre;" direction="ltr" dominant-baseline="text-before-edge">Fly.io</text></g><g stroke-linecap="round" transform="translate(129 10) rotate(0 164.5 78.5)"><path d="M7.86 8.16 C7.86 8.16, 7.86 8.16, 7.86 8.16 M7.86 8.16 C7.86 8.16, 7.86 8.16, 7.86 8.16 M3.66 19.09 C11.13 13.07, 14.23 5.85, 18.1 2.48 M3.66 19.09 C9.2 12.95, 14.79 8.16, 18.1 2.48 M2.75 26.24 C8.58 18.27, 18.09 9.33, 24.4 1.33 M2.75 26.24 C11.12 16.61, 19.25 6.92, 24.4 1.33 M2.48 32.64 C9.91 23.36, 18.14 17.45, 30.7 0.18 M2.48 32.64 C13.89 20.55, 23.48 7.7, 30.7 0.18 M2.88 38.28 C9.75 29.65, 18.44 20.84, 34.37 2.05 M2.88 38.28 C12.81 25.92, 22.75 13.65, 34.37 2.05 M2.62 44.68 C16.49 32.29, 27.11 17.06, 39.36 2.41 M2.62 44.68 C11.74 33.38, 21.94 23.51, 39.36 2.41 M2.36 51.07 C14.81 36.97, 27.72 21.17, 45 2.02 M2.36 51.07 C17.49 33.89, 31.27 17.39, 45 2.02 M2.75 56.72 C18.18 39.27, 33.03 19.5, 49.99 2.38 M2.75 56.72 C16.07 40.28, 30.16 24.2, 49.99 2.38 M2.49 63.11 C20.69 38.5, 41.91 17.37, 55.63 1.98 M2.49 63.11 C20.22 43.59, 37.06 23.25, 55.63 1.98 M2.88 68.76 C17.15 51.14, 30.65 38.42, 60.62 2.34 M2.88 68.76 C15.35 55.31, 25.09 41.77, 60.62 2.34 M2.62 75.16 C22.6 50.8, 44.81 25.1, 66.26 1.95 M2.62 75.16 C20.39 54.94, 38.19 34.87, 66.26 1.95 M2.36 81.55 C17.34 63.01, 35.93 46.47, 71.25 2.31 M2.36 81.55 C19.64 62.12, 35.59 43.48, 71.25 2.31 M2.76 87.2 C23.77 62.99, 44.46 35.08, 76.89 1.91 M2.76 87.2 C33.24 52.16, 61.18 17.67, 76.89 1.91 M2.49 93.59 C19.04 73.87, 39.69 51.83, 81.88 2.27 M2.49 93.59 C21.57 71.09, 38.5 51.6, 81.88 2.27 M2.89 99.24 C27.73 69.79, 52.29 44.68, 87.52 1.88 M2.89 99.24 C22.9 76.61, 42.8 53.93, 87.52 1.88 M2.63 105.64 C27.03 74.58, 50.84 47.42, 92.51 2.24 M2.63 105.64 C32.59 70.24, 62.07 35.81, 92.51 2.24 M2.37 112.03 C33.84 78.76, 59.81 44.43, 98.15 1.85 M2.37 112.03 C28.01 80.85, 56.24 50.34, 98.15 1.85 M2.76 117.68 C40.92 75.24, 81.72 29.37, 103.14 2.21 M2.76 117.68 C30.69 86.01, 57.54 53.36, 103.14 2.21 M2.5 124.07 C26.8 91.61, 56.39 63.62, 108.78 1.81 M2.5 124.07 C44.36 74.77, 86.33 27.64, 108.78 1.81 M2.89 129.72 C35.22 92.31, 67.11 56.84, 113.77 2.17 M2.89 129.72 C40.58 86.6, 81.09 41.55, 113.77 2.17 M3.29 135.36 C47.73 81.09, 92.98 27.8, 119.41 1.78 M3.29 135.36 C48.46 85.21, 91.46 34.27, 119.41 1.78 M5 139.49 C39.36 100.06, 75.4 59.95, 124.4 2.14 M5 139.49 C51.84 86.7, 96.98 33.28, 124.4 2.14 M5.39 145.14 C50.51 95.46, 92.86 41.41, 130.04 1.74 M5.39 145.14 C31.59 113.54, 57.1 83.12, 130.04 1.74 M8.41 147.76 C35.94 117.74, 61.26 91.71, 135.03 2.1 M8.41 147.76 C56.12 91.14, 106.48 34.52, 135.03 2.1 M10.77 151.14 C46.78 112.68, 79.56 71.26, 140.67 1.71 M10.77 151.14 C39.52 121.17, 65.93 89.33, 140.67 1.71 M13.79 153.76 C40.67 120.76, 68.89 90.55, 145.66 2.07 M13.79 153.76 C53.6 106.68, 93.31 62, 145.66 2.07 M18.12 154.88 C53.79 117.94, 84.67 77.71, 150.65 2.43 M18.12 154.88 C50.73 116.63, 85.32 77.01, 150.65 2.43 M21.8 156.75 C52.46 121.7, 82.71 84.97, 156.29 2.03 M21.8 156.75 C51.21 120.83, 82.99 85.29, 156.29 2.03 M26.13 157.86 C71.19 107.43, 114.95 54.62, 161.28 2.39 M26.13 157.86 C78.07 99.78, 128.43 41.37, 161.28 2.39 M32.43 156.71 C76.03 107.38, 118.43 59.04, 166.92 2 M32.43 156.71 C65.34 120.26, 98.47 81.67, 166.92 2 M37.41 157.07 C76.37 110.5, 115.37 64.05, 171.91 2.36 M37.41 157.07 C89.39 99.32, 139.37 39.85, 171.91 2.36 M42.4 157.43 C84.35 110.2, 122.74 63.65, 177.55 1.96 M42.4 157.43 C91.88 99.5, 140.34 42.64, 177.55 1.96 M48.04 157.04 C86.4 114.42, 122.23 74.01, 182.54 2.32 M48.04 157.04 C74.51 124.67, 102.29 94.18, 182.54 2.32 M53.03 157.4 C92.76 108.69, 133.36 61.78, 188.18 1.93 M53.03 157.4 C101.82 101.8, 150 44.27, 188.18 1.93 M58.67 157.01 C103.97 103.85, 148.47 53, 193.17 2.29 M58.67 157.01 C106.77 102.3, 154.64 46.28, 193.17 2.29 M63.66 157.37 C93.96 119.9, 124.34 83.26, 198.81 1.9 M63.66 157.37 C114.92 98.85, 166.23 40.51, 198.81 1.9 M69.3 156.97 C109.31 112.88, 150.38 65.5, 203.8 2.26 M69.3 156.97 C109.93 111.21, 149.5 64.34, 203.8 2.26 M74.29 157.33 C116.71 107.84, 159.13 55.24, 209.44 1.86 M74.29 157.33 C114.19 110.59, 154.43 64.51, 209.44 1.86 M79.93 156.94 C121.26 106.59, 165.47 57.34, 214.43 2.22 M79.93 156.94 C113.46 117.12, 147.39 79.06, 214.43 2.22 M84.92 157.3 C132.29 101.16, 182.04 47.56, 220.07 1.83 M84.92 157.3 C134.64 99.32, 183.7 43.48, 220.07 1.83 M90.56 156.9 C130.68 110.77, 172.39 64.04, 225.06 2.19 M90.56 156.9 C141.05 99.22, 193.57 39.67, 225.06 2.19 M95.55 157.26 C129.25 117.65, 163.43 79.1, 230.7 1.79 M95.55 157.26 C148.02 98.23, 199.89 37.42, 230.7 1.79 M101.19 156.87 C140.91 108.42, 181.62 63.17, 235.69 2.15 M101.19 156.87 C130.1 122.66, 158.66 88.03, 235.69 2.15 M106.18 157.23 C146.39 110.7, 184.55 65.05, 241.33 1.76 M106.18 157.23 C147.28 108.61, 189.41 60.82, 241.33 1.76 M111.82 156.83 C149.51 109.97, 190.27 64.93, 246.32 2.12 M111.82 156.83 C146.08 116.79, 180.65 78.7, 246.32 2.12 M116.81 157.19 C156.7 113.79, 195.67 71.7, 251.96 1.72 M116.81 157.19 C151.51 117.13, 185.91 76.77, 251.96 1.72 M122.45 156.8 C149.87 122.3, 180.17 91.74, 256.95 2.08 M122.45 156.8 C167.96 107.02, 212 56.6, 256.95 2.08 M127.44 157.16 C178.69 98.28, 228.33 42.62, 262.59 1.69 M127.44 157.16 C169.42 110.79, 208.54 64.44, 262.59 1.69 M133.08 156.76 C178.66 103.5, 226.21 46.28, 267.58 2.05 M133.08 156.76 C165.57 119.75, 197.25 83.24, 267.58 2.05 M138.07 157.12 C175.96 115.87, 211.58 72.87, 272.56 2.41 M138.07 157.12 C173.33 116.09, 208.71 76.97, 272.56 2.41 M143.71 156.73 C186.88 105.74, 232.93 55.33, 278.21 2.01 M143.71 156.73 C188.36 103.77, 233.58 51.18, 278.21 2.01 M148.7 157.09 C175.31 125.62, 204.58 90.34, 283.19 2.37 M148.7 157.09 C192.56 106.03, 234.56 56.35, 283.19 2.37 M153.69 157.45 C193.32 111.61, 235.28 66.77, 288.84 1.98 M153.69 157.45 C199.84 103.96, 245.89 50.16, 288.84 1.98 M159.33 157.05 C212.82 95.79, 263.87 34.66, 293.82 2.34 M159.33 157.05 C190.07 121.98, 220.04 87.61, 293.82 2.34 M164.32 157.41 C215.16 99.55, 265.64 40.82, 299.47 1.94 M164.32 157.41 C208.43 108.09, 251.23 58.5, 299.47 1.94 M169.96 157.02 C216.02 104.91, 263.9 49.57, 305.11 1.55 M169.96 157.02 C207.85 114.12, 244.4 72.77, 305.11 1.55 M174.95 157.38 C204.31 125.23, 233.49 88.85, 309.44 2.66 M174.95 157.38 C211.96 113.16, 250.66 69.9, 309.44 2.66 M180.59 156.99 C226.02 105.68, 269.97 53.67, 313.77 3.78 M180.59 156.99 C220.09 109.3, 260.1 64, 313.77 3.78 M185.58 157.35 C216.08 125.55, 244.74 91.77, 317.45 5.65 M185.58 157.35 C214.74 123.13, 243.83 88.52, 317.45 5.65 M191.22 156.95 C241.71 98.27, 289.46 40.77, 320.47 8.27 M191.22 156.95 C235.17 108.7, 277.46 58.89, 320.47 8.27 M196.21 157.31 C235.04 109.64, 276.09 63.65, 323.48 10.9 M196.21 157.31 C230.3 117.66, 265.81 77.45, 323.48 10.9 M201.85 156.92 C234.14 120.75, 266.54 83.74, 325.85 14.28 M201.85 156.92 C242.15 111.86, 282.27 67.25, 325.85 14.28 M206.84 157.28 C257.39 99.52, 304.76 46.77, 327.55 18.41 M206.84 157.28 C245.43 113.33, 284.86 69.04, 327.55 18.41 M212.48 156.88 C242.42 121.91, 269.94 86.79, 327.95 24.05 M212.48 156.88 C256.61 104.8, 301.18 52.5, 327.95 24.05 M217.47 157.24 C248.29 121.31, 281.2 83.83, 329 28.94 M217.47 157.24 C243.14 128.95, 268.49 100.61, 329 28.94 M223.11 156.85 C249.65 128.76, 275.73 97.63, 330.71 33.08 M223.11 156.85 C245.84 129.13, 269.08 102.48, 330.71 33.08 M228.1 157.21 C265.98 114.75, 304.67 69.92, 330.44 39.47 M228.1 157.21 C267.46 113.23, 305.05 68.07, 330.44 39.47 M233.74 156.81 C270.94 112.25, 312.31 66.18, 330.18 45.87 M233.74 156.81 C255.76 131.95, 276.83 106.64, 330.18 45.87 M238.73 157.17 C269.51 121.08, 303.17 85.13, 330.58 51.51 M238.73 157.17 C269.87 119.3, 303.67 82.71, 330.58 51.51 M244.37 156.78 C268.35 132.66, 288.47 107.63, 330.32 57.91 M244.37 156.78 C263.44 134.25, 283.59 111.84, 330.32 57.91 M249.36 157.14 C273.93 130.33, 293.1 107.91, 330.71 63.55 M249.36 157.14 C270.83 132.67, 290.47 108.49, 330.71 63.55 M255 156.74 C279.43 129.13, 301.98 101.11, 330.45 69.95 M255 156.74 C282.02 125.29, 308.99 95.62, 330.45 69.95 M259.99 157.1 C287.12 128.03, 310.76 100.02, 330.19 76.35 M259.99 157.1 C284.63 128.07, 311.02 98.18, 330.19 76.35 M264.98 157.46 C289.63 126.54, 316.06 99.28, 330.58 81.99 M264.98 157.46 C284.26 134.81, 305.7 111.79, 330.58 81.99 M270.62 157.07 C291.09 131.17, 315.21 107.39, 330.32 88.39 M270.62 157.07 C289.89 135.55, 307.64 114.9, 330.32 88.39 M275.61 157.43 C290.02 142.03, 303.04 127.11, 330.72 94.03 M275.61 157.43 C294.05 135.74, 313.76 114.75, 330.72 94.03 M281.25 157.04 C297.7 134.17, 318.44 114.22, 330.45 100.43 M281.25 157.04 C295.24 141.45, 309.13 125.19, 330.45 100.43 M286.24 157.4 C294.65 146.82, 304.66 135.98, 330.19 106.83 M286.24 157.4 C297.95 143.56, 309.84 130.01, 330.19 106.83 M291.88 157 C304.93 139.58, 320.76 123.54, 330.59 112.47 M291.88 157 C301.7 146.78, 309.58 137.91, 330.59 112.47 M296.87 157.36 C308.32 146.13, 315.74 132.25, 330.33 118.87 M296.87 157.36 C304.92 146.55, 315.28 136.57, 330.33 118.87 M303.17 156.21 C310.23 147.77, 316.97 142.49, 330.06 125.27 M303.17 156.21 C308.93 149.96, 314.3 141.82, 330.06 125.27 M309.46 155.06 C318.43 148.2, 323.8 136.66, 329.15 132.42 M309.46 155.06 C314.5 149.45, 319.65 142.39, 329.15 132.42 M317.08 152.4 C318.38 149.74, 319.71 147.8, 325.6 142.59 M317.08 152.4 C320.59 149.63, 322.33 145.97, 325.6 142.59" stroke="#b2f2bb" stroke-width="0.5" fill="none"></path><path d="M32 0 M32 0 C117.52 -0.96, 206.76 -1.07, 297 0 M32 0 C126.59 1.54, 221.96 1.01, 297 0 M297 0 C319.9 0.43, 330.86 8.88, 329 32 M297 0 C318.32 0.5, 326.77 12.58, 329 32 M329 32 C328.84 60.73, 328.35 90.53, 329 125 M329 32 C329.52 53.02, 329.1 75.19, 329 125 M329 125 C328.83 144.89, 316.53 155.6, 297 157 M329 125 C329.79 145.8, 319.62 157.96, 297 157 M297 157 C213.29 158.48, 131.61 157.57, 32 157 M297 157 C226.58 155.75, 155.85 156.31, 32 157 M32 157 C11.14 156.38, -1.34 146.7, 0 125 M32 157 C12.37 156.23, -1.46 146.79, 0 125 M0 125 C-2.76 97.4, 0.15 70.34, 0 32 M0 125 C0.7 106.07, -0.55 87.53, 0 32 M0 32 C-0.91 12.63, 11.89 -0.21, 32 0 M0 32 C1.73 9.01, 12.91 -1.37, 32 0" stroke="#1e1e1e" stroke-width="1" fill="none"></path></g><g transform="translate(134 15) rotate(0 75.42500305175781 12.5)"><text x="0" y="0" font-family="Virgil, Segoe UI Emoji" font-size="20px" fill="#1e1e1e" text-anchor="start" style="white-space: pre;" direction="ltr" dominant-baseline="text-before-edge">MongoDB Atlas</text></g><g stroke-linecap="round" transform="translate(419 308) rotate(0 86 60)"><path d="M6.19 58.38 C6.19 58.38, 6.19 58.38, 6.19 58.38 M6.19 58.38 C6.19 58.38, 6.19 58.38, 6.19 58.38 M7.24 63.27 C10.69 60.62, 11.96 58.75, 16.43 52.71 M7.24 63.27 C9.03 60.6, 11.15 58.62, 16.43 52.71 M9.61 66.65 C19.63 58.71, 27.7 47.16, 29.94 43.26 M9.61 66.65 C16.52 58.74, 23.85 50.78, 29.94 43.26 M12.63 69.28 C20.83 61.02, 30.84 50.55, 43.46 33.8 M12.63 69.28 C19.85 62.51, 26.55 54.57, 43.46 33.8 M15.64 71.9 C27.64 54.85, 44.55 39.75, 56.98 24.35 M15.64 71.9 C26.57 58.25, 39.36 43.71, 56.98 24.35 M18.66 74.52 C37.4 54.03, 55.65 34.83, 73.77 11.13 M18.66 74.52 C32.04 58.11, 48.04 40.93, 73.77 11.13 M22.34 76.39 C45.82 46.61, 67.68 22.37, 84.01 5.45 M22.34 76.39 C46.39 47.91, 69.69 19.1, 84.01 5.45 M25.36 79.02 C39.56 65.05, 54.83 48.97, 88.99 5.81 M25.36 79.02 C49.21 53.04, 71.03 26.87, 88.99 5.81 M29.03 80.89 C42.65 63.8, 56.27 44.74, 93.33 6.93 M29.03 80.89 C44.27 62.23, 59.05 44.39, 93.33 6.93 M32.05 83.51 C55.96 57.42, 79.51 28.95, 97 8.8 M32.05 83.51 C57.28 55.32, 81.46 25.78, 97 8.8 M35.73 85.38 C50.72 64.54, 68.21 46.12, 100.68 10.67 M35.73 85.38 C59.92 57.83, 81.81 32.41, 100.68 10.67 M38.74 88.01 C56.72 65.92, 71.94 48.75, 103.69 13.29 M38.74 88.01 C65.26 58.7, 91.15 28.41, 103.69 13.29 M42.42 89.88 C55.65 72.37, 72.21 56.35, 107.37 15.16 M42.42 89.88 C55.49 74.29, 70.38 57.88, 107.37 15.16 M46.09 91.74 C58.84 77.28, 71.6 60.99, 111.04 17.03 M46.09 91.74 C59.75 75.56, 72.93 61.18, 111.04 17.03 M49.11 94.37 C73.17 64.92, 101.78 35.47, 114.06 19.65 M49.11 94.37 C64.93 74.43, 82.44 54.1, 114.06 19.65 M52.79 96.24 C76.37 66.95, 103.08 39.55, 117.74 21.52 M52.79 96.24 C76.87 67.24, 101.77 39.51, 117.74 21.52 M55.81 98.86 C69.22 84.52, 80.82 68.37, 120.76 24.15 M55.81 98.86 C74.58 78.39, 94.06 55.98, 120.76 24.15 M59.48 100.73 C80.92 73.94, 105.65 51.16, 123.78 26.77 M59.48 100.73 C74.11 81.78, 91.13 64.65, 123.78 26.77 M62.5 103.36 C78.45 84.69, 96.27 65.67, 127.45 28.64 M62.5 103.36 C78.33 84.02, 95.02 66.42, 127.45 28.64 M66.18 105.23 C91.4 74.37, 118.86 47.36, 130.47 31.26 M66.18 105.23 C84.26 85.5, 101.26 63.18, 130.47 31.26 M69.19 107.85 C84.2 90.33, 99.99 73.54, 133.49 33.89 M69.19 107.85 C84.87 88.69, 101.88 70.43, 133.49 33.89 M72.87 109.72 C96.39 79.64, 121.73 53.66, 137.16 35.76 M72.87 109.72 C93.16 86.57, 113.27 64.16, 137.16 35.76 M75.89 112.34 C90.61 95.23, 103.41 80.82, 140.18 38.38 M75.89 112.34 C99.82 85.82, 123.74 57.76, 140.18 38.38 M79.56 114.21 C98.3 94.91, 116.41 74.68, 143.2 41.01 M79.56 114.21 C101.65 89.43, 123.28 63.33, 143.2 41.01 M83.24 116.08 C96.57 100.87, 112.46 84.92, 146.88 42.88 M83.24 116.08 C97.73 100.12, 109.46 87.03, 146.88 42.88 M87.57 117.2 C100.36 102.99, 115.43 85.67, 149.89 45.5 M87.57 117.2 C108.1 92.52, 128.43 69.36, 149.89 45.5 M93.21 116.8 C115.08 91.29, 135.46 68.31, 152.91 48.12 M93.21 116.8 C112.94 92.26, 134.3 69.1, 152.91 48.12 M103.45 111.13 C115.53 94.48, 131.1 80.5, 156.59 49.99 M103.45 111.13 C122.89 89.48, 141.16 67.74, 156.59 49.99 M116.31 102.43 C133.29 82.76, 147.65 65.6, 159.61 52.62 M116.31 102.43 C130.68 87.37, 144.11 69.85, 159.61 52.62 M129.82 92.98 C139.34 85.6, 144.24 74.88, 162.63 55.24 M129.82 92.98 C139.06 81.1, 148.49 71, 162.63 55.24 M143.34 83.53 C149.31 78.52, 155.8 68.93, 165.64 57.87 M143.34 83.53 C148.95 77.87, 153.88 71.41, 165.64 57.87 M9.32 67.02 C9.32 67.02, 9.32 67.02, 9.32 67.02 M9.32 67.02 C9.32 67.02, 9.32 67.02, 9.32 67.02 M23.26 73.84 C18.23 68.91, 14.86 67.69, 7.41 60.07 M23.26 73.84 C19.02 69.38, 13.45 65.61, 7.41 60.07 M48.53 90.51 C35.09 78.37, 19.1 65.82, 8.53 55.73 M48.53 90.51 C35.92 79, 21.91 66.3, 8.53 55.73 M79.07 111.76 C53.74 89.8, 27.51 66.42, 11.15 52.72 M79.07 111.76 C55.3 91.1, 32.23 72, 11.15 52.72 M88.49 114.65 C69.69 98.39, 53.21 83.79, 14.53 50.35 M88.49 114.65 C62.29 91.7, 38.12 70.76, 14.53 50.35 M93.38 113.6 C78.74 100.26, 61.97 84.41, 17.91 47.99 M93.38 113.6 C69.02 92.03, 47.04 72.28, 17.91 47.99 M96.76 111.23 C67.25 88.7, 40.13 63.86, 21.29 45.63 M96.76 111.23 C76.73 94.45, 58.53 77.28, 21.29 45.63 M100.14 108.87 C75.61 89.63, 52.55 66.72, 24.67 43.26 M100.14 108.87 C75.15 86.85, 49.34 64.43, 24.67 43.26 M104.27 107.16 C86.18 89.96, 66.74 73.2, 28.04 40.9 M104.27 107.16 C78.76 84.35, 51.82 62.32, 28.04 40.9 M107.65 104.8 C88.41 86.99, 68.61 72.89, 31.42 38.54 M107.65 104.8 C87.59 86.09, 67.04 68.55, 31.42 38.54 M111.03 102.44 C83.39 78.26, 54.73 54.54, 34.8 36.18 M111.03 102.44 C82.22 76.87, 53.03 51.01, 34.8 36.18 M114.41 100.08 C90.08 80.53, 63.73 59.79, 38.18 33.81 M114.41 100.08 C87.86 76.93, 61.94 54.73, 38.18 33.81 M117.79 97.71 C89.97 73.08, 64.68 50.23, 41.56 31.45 M117.79 97.71 C92.94 76.49, 67.26 55.13, 41.56 31.45 M121.17 95.35 C93.21 70.89, 65.12 46.27, 44.94 29.09 M121.17 95.35 C95.2 73.9, 68.61 51.12, 44.94 29.09 M124.54 92.99 C98.53 70.93, 69.5 43.89, 48.32 26.73 M124.54 92.99 C102.05 73.54, 79.23 52.12, 48.32 26.73 M127.92 90.62 C99.7 66.23, 70.57 41.4, 51.7 24.36 M127.92 90.62 C112.3 77.48, 95.41 63.71, 51.7 24.36 M131.3 88.26 C105.92 67.18, 85.93 46.95, 55.08 22 M131.3 88.26 C102.56 62.57, 74.82 38.54, 55.08 22 M134.68 85.9 C112.44 68.89, 91.16 48.12, 58.46 19.64 M134.68 85.9 C117.13 70.85, 98.82 55.56, 58.46 19.64 M138.06 83.54 C120.16 68.22, 98.85 52.35, 61.83 17.27 M138.06 83.54 C111.15 58.45, 84.23 35.43, 61.83 17.27 M141.44 81.17 C115.58 57.82, 89.02 35.24, 65.21 14.91 M141.44 81.17 C120 64.27, 101.49 46.24, 65.21 14.91 M144.82 78.81 C119.03 52.79, 88 31.85, 68.59 12.55 M144.82 78.81 C125.76 63.99, 108.95 47.39, 68.59 12.55 M148.2 76.45 C133.35 60.95, 116.38 48.02, 71.97 10.19 M148.2 76.45 C125.1 55.37, 100.03 34.32, 71.97 10.19 M151.58 74.09 C133.62 61.97, 116.25 46.92, 74.6 7.17 M151.58 74.09 C125.39 52.35, 98.14 27.56, 74.6 7.17 M154.95 71.72 C135.39 56.91, 118.2 41.14, 78.73 5.46 M154.95 71.72 C127.13 48.48, 100.92 25.97, 78.73 5.46 M158.33 69.36 C136.66 50.47, 117.08 30.83, 82.86 3.75 M158.33 69.36 C129.91 45.22, 102.22 19.43, 82.86 3.75 M161.71 67 C138.67 49.97, 118.69 30.16, 89.26 4.02 M161.71 67 C140.95 49.91, 121.19 31.21, 89.26 4.02 M165.09 64.63 C138.21 41.92, 111.16 17.18, 93.39 2.31 M165.09 64.63 C138.87 42.11, 111.19 17.85, 93.39 2.31 M166.96 60.96 C152.69 47.39, 136.04 34.33, 111.11 12.41 M166.96 60.96 C154.61 51.59, 143.03 41.15, 111.11 12.41" stroke="#a5d8ff" stroke-width="0.5" fill="none"></path><path d="M108.75 15.25 M108.75 15.25 C121.4 25.02, 133.78 32.16, 150.25 45.75 M108.75 15.25 C124.24 27.02, 139.51 36.69, 150.25 45.75 M150.25 45.75 C173.24 59.15, 170.01 62, 150.25 76.25 M150.25 45.75 C170.44 60.71, 170.09 61.84, 150.25 76.25 M150.25 76.25 C142.36 80.7, 129.44 90.03, 108.75 104.75 M150.25 76.25 C138.88 83.53, 127.51 91.09, 108.75 104.75 M108.75 104.75 C85.34 119.91, 85.03 120.52, 65.25 104.75 M108.75 104.75 C89.16 121.23, 86.53 117.74, 65.25 104.75 M65.25 104.75 C50.75 94.55, 38.51 89.41, 21.75 76.25 M65.25 104.75 C54.17 97.98, 43.46 91.01, 21.75 76.25 M21.75 76.25 C0.83 59.32, -1.16 60.56, 21.75 45.75 M21.75 76.25 C2.08 60.04, -2.09 60.45, 21.75 45.75 M21.75 45.75 C34.82 36.77, 49.68 25.69, 65.25 15.25 M21.75 45.75 C37.1 35.73, 52.34 25.14, 65.25 15.25 M65.25 15.25 C85.5 -1.17, 88.39 0.05, 108.75 15.25 M65.25 15.25 C88.5 1.95, 88.88 -0.25, 108.75 15.25" stroke="#1e1e1e" stroke-width="1" fill="none"></path></g><g transform="translate(472.9000015258789 343) rotate(0 32.099998474121094 25)"><text x="32.099998474121094" y="0" font-family="Virgil, Segoe UI Emoji" font-size="20px" fill="#1e1e1e" text-anchor="middle" style="white-space: pre;" direction="ltr" dominant-baseline="text-before-edge">App </text><text x="32.099998474121094" y="25" font-family="Virgil, Segoe UI Emoji" font-size="20px" fill="#1e1e1e" text-anchor="middle" style="white-space: pre;" direction="ltr" dominant-baseline="text-before-edge">Python</text></g><g transform="translate(250 732) rotate(0 53.00833511352539 12.5)"><text x="0" y="0" font-family="Virgil, Segoe UI Emoji" font-size="20px" fill="#1e1e1e" text-anchor="start" style="white-space: pre;" direction="ltr" dominant-baseline="text-before-edge">Utilisateur</text></g><g stroke-linecap="round" transform="translate(204.5 46) rotate(0 88.5 42.5)"><path d="M15.25 18.56 C15.25 18.56, 15.25 18.56, 15.25 18.56 M15.25 18.56 C15.25 18.56, 15.25 18.56, 15.25 18.56 M4.39 36.21 C11.66 28.81, 20.16 18, 25.93 15.18 M3.57 37.37 C11.34 29.86, 17.87 22.27, 24.59 13.74 M3.19 43.97 C12.19 31.89, 22.66 22.98, 32.12 10.66 M4.05 41.88 C12.83 32.43, 22.28 21.59, 32.83 9.9 M4.52 48.64 C17.23 32.34, 30.37 15.39, 43.94 6.59 M4.37 48.83 C17.79 32.8, 31.47 17.61, 41.56 5.6 M4.71 55.51 C19.64 38.18, 34.09 22.4, 45.39 7.88 M4.16 55.91 C19.65 36.12, 35.55 18.65, 46.42 6.53 M7.9 56.88 C20.84 43.92, 30.63 30.56, 51.71 6.49 M7.21 58.65 C23.52 39.1, 39.49 20.79, 52.47 6.36 M11.14 61.45 C25.12 42.84, 40.95 26.79, 57.71 3.97 M9.47 60.93 C23.53 47.17, 36.33 32, 57.53 6.44 M14.21 62.45 C32.09 43.64, 48.86 24.17, 63.09 4.44 M13.7 64.26 C26.39 50.28, 37.59 35.57, 64.21 5.89 M16.42 65.43 C29.41 51.82, 41.06 37.64, 69.81 5.59 M17.21 66.67 C30.73 50.28, 43.83 32.7, 70.29 3.75 M22.08 66.77 C38.78 49.04, 53.26 28.17, 76.95 4.17 M20.11 68.35 C41.34 44.43, 61.36 22, 76.36 3.57 M22.56 71.93 C34.77 55.02, 47.82 37.96, 83.31 0.51 M22.35 71 C39.98 50.09, 56.95 31.02, 83.36 1.05 M25.02 74.16 C49.38 49.08, 69.77 21.65, 89.04 2.53 M25.25 73.75 C45.73 51.13, 65.37 28.96, 89.06 1.21 M31.15 76.05 C52.37 47.81, 80.09 19.03, 94.79 0.43 M29.14 75.73 C48.2 53.46, 68.71 29.58, 94.09 2.15 M33.32 77.51 C50.98 57.89, 69.44 37.66, 96.68 1.26 M34.4 75.23 C57.31 50.96, 78.61 25.52, 97.75 2.81 M39.28 79.01 C60.36 49.48, 81.97 26.87, 101.59 1.13 M39 78.09 C62.43 49.38, 85.92 22.89, 104.24 2.24 M41.57 80.12 C63.85 53.55, 88.43 24.44, 107.99 4.46 M42.85 79.27 C66.16 52.15, 91.37 23.96, 108.32 2.05 M48.3 80.44 C73.04 50.44, 95.26 22.8, 114.64 3.27 M47.33 81.03 C66.95 57.85, 86.91 33.62, 112.87 2.73 M51.86 79.41 C76.48 52.48, 98.52 26.64, 117.34 4.36 M51.05 81.76 C70.42 58.28, 90.27 35.6, 118.59 4.05 M56.39 80.54 C78.09 54.66, 104.14 24.16, 121.73 4.63 M56.03 81.41 C70.08 64.59, 86.59 45.48, 123.59 3.44 M58.48 82.67 C77.26 62.28, 99.46 41.73, 126.65 3.81 M59.37 81.79 C80.59 59.74, 100.7 35.73, 127.67 5.86 M65.96 81.43 C85.25 57.32, 109.92 31.98, 129.57 6.41 M64.89 83.29 C85.97 58.98, 107.05 35.97, 130.6 6.92 M68.61 82.31 C94.41 56.87, 117.1 32.31, 137.36 7.79 M70.73 82.89 C85.74 66.12, 99.62 49.25, 135.81 7.99 M74.3 84.59 C91.42 64.23, 111.24 46.78, 137.69 10.38 M74.31 83.41 C97.63 59.03, 118.5 35.38, 138.62 9.62 M81.66 84.63 C99.96 61.79, 116.45 42.88, 141.79 12.65 M79.96 83.78 C99.88 60.74, 119.78 37.66, 143.88 11.61 M84.9 83.11 C100.14 63.24, 119.63 44.61, 149.18 12.94 M84.56 85.47 C104.69 62.22, 123.79 39.01, 147.6 11.94 M90.54 84.29 C105.64 66.22, 124.84 46.33, 151.12 13.62 M89.13 84.85 C108.31 63.75, 125.22 42.61, 153.27 14.09 M93.48 87.99 C113.6 65.38, 131.58 43.78, 158.02 13.9 M93.82 86.33 C117.58 61.32, 138.6 35.17, 156.1 14.97 M101.72 84.34 C116.96 66.52, 132.25 47.54, 157.47 19.56 M101.49 84.2 C119.38 65.01, 136.47 43.99, 160.01 17.75 M105.21 82.06 C126.41 62.7, 142.25 45.08, 163.07 22.19 M107.43 84.04 C126.69 60.56, 146.93 36.96, 161.23 20.25 M115.18 84.17 C124.44 67.74, 138.25 52.54, 165.77 23.94 M113.54 83.58 C132.52 62.41, 149.59 40.67, 164.61 22.83 M118.27 82.3 C130.35 72.1, 140.03 58.61, 167.36 24.07 M119.39 82.1 C135.08 63.75, 150.98 44.49, 167.94 25.98 M123.87 80.86 C138.3 67.85, 149.68 50.52, 169.16 30.12 M124.39 81.73 C137.46 67.26, 150.75 52.03, 171.51 28.75 M132.96 80.83 C143.78 67.8, 153.11 51.47, 172.82 29.23 M131.55 80.44 C143.53 66.71, 152.9 55.49, 173.79 31.07 M140.12 77.03 C153.31 61.07, 165.77 48.74, 174.39 38.34 M140.29 76.28 C152.65 63.09, 163.16 48.66, 174.41 37.16 M149.74 71.09 C156.12 61.86, 162.51 55.32, 173 42.48 M149.58 71.65 C158.92 60.79, 170.14 49.35, 175.65 42.88 M156.61 65.73 C162.32 61.87, 170.34 52.55, 176.34 46.2 M157.43 66.57 C162.97 60.57, 168.16 55.88, 176.86 46.36 M3.16 54.29 C3.16 54.29, 3.16 54.29, 3.16 54.29 M3.16 54.29 C3.16 54.29, 3.16 54.29, 3.16 54.29 M26.13 68.67 C16.9 60.88, 10.3 56.43, 1.42 50.02 M25.88 67.92 C18.91 62.15, 11.43 56.44, 3.6 48.68 M36.16 70.42 C24.6 62.89, 15.62 53.7, 2.67 42.25 M35.15 71.46 C23.87 61.62, 11.58 51.17, 2.22 42.42 M47.72 77.26 C36.53 67.43, 24.96 56.95, 0.76 38.37 M45.61 74.65 C29.08 60.28, 10.96 45.59, 1.8 38.03 M58.65 77.66 C40.67 63.73, 22.01 50.57, 4.25 32.41 M56.42 79.07 C40.36 65.14, 25.6 51.91, 4.08 33.45 M65.81 79.06 C41.88 61.24, 24.02 44.95, 7.29 29.85 M63.66 80.57 C40.23 59.8, 18.55 40.43, 6.11 29.64 M70.65 82.27 C50.31 65.52, 31.38 49.05, 10.29 26.97 M70.72 80.88 C49.95 63.17, 30.18 45.2, 7.8 26.84 M78.93 80.89 C57.22 62.87, 36.22 43.71, 11.74 24.68 M76.9 82.04 C61.01 68.49, 45.66 53.11, 10.65 23.69 M84.7 83.82 C60.05 59.67, 37.76 41.33, 15.44 22.43 M84.25 82.17 C63.81 63.82, 41.4 46.54, 13.79 20.18 M89.3 84.59 C72.63 65.91, 52.88 49.35, 15.22 17.52 M91.51 83.77 C72.99 65.76, 53.19 50.34, 15.63 18.11 M94.89 81.17 C72.79 62.75, 50.34 41.61, 20.5 16.97 M96.45 82.8 C70.01 60.33, 44.83 38.37, 20.28 16.08 M101.19 83.25 C77.02 59.64, 50.16 36.48, 23.48 15.46 M101.49 83.01 C82.79 65.63, 65.18 48.52, 23.59 14.56 M107.96 81.56 C78.54 56.54, 53.58 36.03, 27.91 10.58 M107.09 80.37 C90.23 67.18, 74.81 52.28, 28.84 12.26 M110.79 81.69 C96.08 66.83, 77.02 52, 31.37 11.4 M112.38 80.07 C94.98 64.13, 76.57 49.25, 31.84 9.84 M116.3 78.05 C96.1 60.87, 69.56 38.39, 37.22 9.07 M117.27 79.56 C91.68 56.11, 65.92 34.46, 35.81 9.6 M120.67 79.16 C90.1 48.76, 61.44 22.58, 38.63 7.39 M121.81 79 C98.8 58.43, 72.57 35.47, 40.26 7.21 M126.89 78.82 C105.24 58.96, 86.77 41.74, 42.34 4.71 M128.37 77.52 C103.07 56.76, 76.94 33.84, 43.62 4.71 M131.25 77.42 C97.88 47.86, 66.95 18.96, 48.12 0.56 M132.96 77.68 C101.15 49.37, 69.85 21.73, 47.59 2.3 M137.09 74.53 C112.28 55.72, 86.96 32.19, 52.33 0.85 M137.87 75.16 C114.47 54.02, 91.25 34.35, 51.53 0.61 M142.32 74.06 C120.4 56.05, 96.87 35.55, 57.86 -0.85 M142.05 73.09 C123.72 58.87, 107.41 43.22, 57.34 1.18 M146.9 70.94 C124.35 54.89, 102.5 36.66, 61.89 -1.38 M145.51 71.83 C115.32 45.34, 86.24 19.52, 64.08 1.43 M150.32 71.03 C131.04 54.44, 112.52 36.92, 68.68 -0.76 M149.64 69.96 C131.35 56.26, 115.09 39.84, 67.59 -0.91 M151.42 68.96 C126.6 41.95, 95.68 20.88, 72.55 -0.97 M153.89 67.32 C126.98 45.35, 98.65 21.99, 74.38 -1.52 M156.56 67.46 C136.57 49.6, 115.88 32.35, 78.1 -2.64 M156.86 65.44 C137.48 51.02, 118.44 34.3, 78.74 -1 M159.41 63.24 C138.61 43.19, 116.63 22.92, 83.99 -3.18 M160.92 64.5 C143.84 49.35, 124.38 33.74, 85.36 -1.91 M163.45 60.28 C144.55 44.58, 121.73 28.1, 92.46 -0.86 M163.61 61.82 C150.31 48.26, 133.63 35.38, 91.75 -1.7 M167.97 57.65 C150.92 43.96, 134.53 32.66, 96.78 -0.17 M166.52 58.74 C143.87 41.05, 122.87 21.24, 98.52 -0.96 M169.3 54.2 C146.09 35.03, 123.13 14.46, 104.77 1.37 M169.39 56.49 C155.75 43.45, 140.87 29.09, 105.88 -1.13 M171.59 53.08 C148.45 34.76, 122.36 10.88, 112.58 1.77 M171.74 53.78 C152.55 37.78, 134.51 20.84, 112.15 1.27 M176.54 50.37 C154.02 29.24, 132.96 11.11, 119.13 -0.07 M175.51 50.59 C158.12 33.71, 140.34 18.93, 119.22 0.99 M176.89 46.94 C166.49 37.57, 154.08 26.41, 122.68 2.11 M177.41 47.16 C158.76 29.37, 139.25 13.72, 123.85 -0.21 M178.2 41.13 C163.82 32.26, 153.09 21.62, 133.3 4.49 M177.56 41.75 C166.72 32.56, 155.24 21.72, 135.17 4.02 M175.83 35.17 C169.27 28.5, 161.23 22.56, 141.82 6.64 M175.39 34.26 C167.34 27.28, 158.97 21.3, 144.36 7.27" stroke="#a5d8ff" stroke-width="0.5" fill="none"></path><path d="M83.48 0.54 C95.65 -0.29, 110.4 1.22, 122.05 3.35 C133.69 5.47, 144.79 8.8, 153.34 13.31 C161.88 17.81, 169.65 24.35, 173.33 30.38 C177.02 36.41, 177.6 43.54, 175.43 49.49 C173.27 55.44, 167.7 61.04, 160.33 66.06 C152.96 71.09, 142.21 76.41, 131.22 79.65 C120.23 82.88, 107.07 85.11, 94.39 85.47 C81.7 85.83, 66.95 84.21, 55.12 81.81 C43.29 79.42, 32 75.62, 23.4 71.08 C14.8 66.55, 7.1 60.61, 3.51 54.59 C-0.08 48.57, -0.12 41, 1.85 34.98 C3.82 28.96, 8.23 23.47, 15.33 18.46 C22.42 13.46, 32.8 8, 44.41 4.97 C56.02 1.93, 77.87 1.04, 85.02 0.25 C92.16 -0.53, 87.15 -0.52, 87.3 0.27 M81.07 -0.16 C93.48 -0.99, 109.11 1.6, 120.87 3.76 C132.64 5.91, 143.06 8.59, 151.67 12.77 C160.29 16.96, 168.52 23.14, 172.54 28.89 C176.57 34.64, 177.71 41.32, 175.83 47.27 C173.95 53.22, 168.17 59.39, 161.28 64.57 C154.38 69.76, 145.41 75.21, 134.45 78.38 C123.5 81.54, 108.36 82.71, 95.54 83.56 C82.72 84.41, 69.28 85.59, 57.53 83.49 C45.79 81.39, 34.12 75.42, 25.08 70.97 C16.03 66.52, 7.34 62.29, 3.26 56.81 C-0.82 51.33, -1.29 44.18, 0.6 38.09 C2.5 32, 7.73 25.61, 14.62 20.27 C21.52 14.93, 31.02 9.52, 41.97 6.06 C52.91 2.59, 73.99 0.09, 80.28 -0.53 C86.58 -1.15, 79.61 1.69, 79.76 2.32" stroke="#1e1e1e" stroke-width="1" fill="none"></path></g><g transform="translate(249.43771627734395 63.447961799571715) rotate(0 43.483333587646484 25)"><text x="43.483333587646484" y="0" font-family="Virgil, Segoe UI Emoji" font-size="20px" fill="#1e1e1e" text-anchor="middle" style="white-space: pre;" direction="ltr" dominant-baseline="text-before-edge">BD </text><text x="43.483333587646484" y="25" font-family="Virgil, Segoe UI Emoji" font-size="20px" fill="#1e1e1e" text-anchor="middle" style="white-space: pre;" direction="ltr" dominant-baseline="text-before-edge">MongoDB</text></g><g stroke-linecap="round"><g transform="translate(302.9151758540554 541.1725269475806) rotate(0 58.40960969382445 -82.05329699153401)"><path d="M0.26 0.29 C2.78 -13.69, -5.45 -57.53, 14.15 -84.98 C33.76 -112.43, 100.54 -151.4, 117.89 -164.39 M-1.07 -0.61 C1.47 -14.88, -5.99 -59.84, 13.76 -87 C33.52 -114.16, 99.92 -150.52, 117.46 -163.56" stroke="#1e1e1e" stroke-width="1" fill="none"></path></g><g transform="translate(302.9151758540554 541.1725269475806) rotate(0 58.40960969382445 -82.05329699153401)"><path d="M99.89 -137.82 C103.9 -143.8, 105.99 -148.47, 118.38 -161.83 M100.25 -139.32 C105.75 -146.82, 110.78 -155.69, 116.88 -163.28" stroke="#1e1e1e" stroke-width="1" fill="none"></path></g><g transform="translate(302.9151758540554 541.1725269475806) rotate(0 58.40960969382445 -82.05329699153401)"><path d="M88.71 -155.03 C95 -157.27, 99.54 -158.19, 118.38 -161.83 M89.07 -156.53 C98.32 -158.31, 107.03 -161.51, 116.88 -163.28" stroke="#1e1e1e" stroke-width="1" fill="none"></path></g></g><mask></mask><g stroke-linecap="round"><g transform="translate(497.30687155081046 307.7393919412951) rotate(0 -76.59510277355844 -89.23254191448382)"><path d="M0.64 0.27 C-10.71 -12.94, -41.54 -50.15, -67.2 -79.99 C-92.86 -109.82, -138.73 -162.25, -153.33 -178.73 M-0.48 -0.64 C-11.54 -14.11, -39.39 -52.21, -64.95 -81.71 C-90.51 -111.21, -138.81 -161.59, -153.83 -177.64" stroke="#1e1e1e" stroke-width="1" fill="none"></path></g><g transform="translate(497.30687155081046 307.7393919412951) rotate(0 -76.59510277355844 -89.23254191448382)"><path d="M-24.92 -16.17 C-14.38 -8.36, -6.53 -5.18, -0.27 -0.57 M-25 -14.51 C-16.63 -9.68, -5.57 -3.43, 0.27 0.51" stroke="#1e1e1e" stroke-width="1" fill="none"></path></g><g transform="translate(497.30687155081046 307.7393919412951) rotate(0 -76.59510277355844 -89.23254191448382)"><path d="M-9.23 -29.39 C-4.7 -16.5, -2.78 -8.32, -0.27 -0.57 M-9.3 -27.73 C-6.82 -17.9, -1.6 -6.73, 0.27 0.51" stroke="#1e1e1e" stroke-width="1" fill="none"></path></g><g transform="translate(497.30687155081046 307.7393919412951) rotate(0 -76.59510277355844 -89.23254191448382)"><path d="M-126.58 -165.68 C-135.81 -168.31, -147.91 -175.86, -154.75 -178.47 M-126.65 -164.02 C-137.83 -169.47, -146.42 -173.79, -154.21 -177.4" stroke="#1e1e1e" stroke-width="1" fill="none"></path></g><g transform="translate(497.30687155081046 307.7393919412951) rotate(0 -76.59510277355844 -89.23254191448382)"><path d="M-141.49 -151.59 C-145 -159.62, -151.47 -172.49, -154.75 -178.47 M-141.57 -149.93 C-147.14 -160.7, -150.18 -170.26, -154.21 -177.4" stroke="#1e1e1e" stroke-width="1" fill="none"></path></g></g><mask></mask><g transform="translate(226 195) rotate(0 70.5250015258789 12.5)"><text x="0" y="0" font-family="Virgil, Segoe UI Emoji" font-size="20px" fill="#1e1e1e" text-anchor="start" style="white-space: pre;" direction="ltr" dominant-baseline="text-before-edge">CRUD articles</text></g><g stroke-linecap="round" transform="translate(31 309) rotate(0 86 60)"><path d="M6.19 58.38 C6.19 58.38, 6.19 58.38, 6.19 58.38 M6.19 58.38 C6.19 58.38, 6.19 58.38, 6.19 58.38 M7.24 63.27 C8.51 60.97, 10.77 58.35, 16.43 52.71 M7.24 63.27 C10.4 58.77, 14.83 55.01, 16.43 52.71 M9.61 66.65 C13.81 58.92, 22.38 51.46, 29.94 43.26 M9.61 66.65 C16.38 58.68, 23.87 49.18, 29.94 43.26 M12.63 69.28 C23.38 61.11, 29.03 47.99, 43.46 33.8 M12.63 69.28 C24.14 55.89, 36.79 41.43, 43.46 33.8 M15.64 71.9 C27.37 54.8, 42.61 40.19, 56.98 24.35 M15.64 71.9 C24.05 61.88, 31.62 52.88, 56.98 24.35 M18.66 74.52 C34.55 56.94, 52.75 35.88, 73.77 11.13 M18.66 74.52 C34.83 54.91, 50.42 36.92, 73.77 11.13 M22.34 76.39 C36.9 57.22, 52.1 39.64, 84.01 5.45 M22.34 76.39 C42.7 53.66, 63.91 29.53, 84.01 5.45 M25.36 79.02 C38.27 64.4, 50.04 49.22, 88.99 5.81 M25.36 79.02 C45.33 57.44, 63.81 33.56, 88.99 5.81 M29.03 80.89 C42.8 66.41, 59.33 46.36, 93.33 6.93 M29.03 80.89 C52.4 53.78, 77.3 27.06, 93.33 6.93 M32.05 83.51 C57.66 52.66, 82.72 23.18, 97 8.8 M32.05 83.51 C53.88 57.19, 76.55 31.07, 97 8.8 M35.73 85.38 C50.27 69.13, 64.1 53.14, 100.68 10.67 M35.73 85.38 C50.77 66.83, 65.84 51.28, 100.68 10.67 M38.74 88.01 C55.48 68.43, 73.37 51.41, 103.69 13.29 M38.74 88.01 C56.68 67.7, 74.72 45.58, 103.69 13.29 M42.42 89.88 C64.13 66.01, 86.45 41.28, 107.37 15.16 M42.42 89.88 C57.46 71.84, 72.12 54.86, 107.37 15.16 M46.09 91.74 C67.19 66.14, 86.36 43.16, 111.04 17.03 M46.09 91.74 C68.56 67.39, 88.02 44, 111.04 17.03 M49.11 94.37 C60.92 80, 73.14 63.82, 114.06 19.65 M49.11 94.37 C64.24 78.55, 77.03 61.47, 114.06 19.65 M52.79 96.24 C69.45 75.96, 88.26 54.75, 117.74 21.52 M52.79 96.24 C68.23 78.01, 84 59.08, 117.74 21.52 M55.81 98.86 C76.43 78.33, 91.12 57.76, 120.76 24.15 M55.81 98.86 C77.86 72.4, 100.57 45.02, 120.76 24.15 M59.48 100.73 C82.63 77.18, 105.18 50.35, 123.78 26.77 M59.48 100.73 C79.36 76.48, 102.27 50.38, 123.78 26.77 M62.5 103.36 C84.48 81.12, 103.55 57.08, 127.45 28.64 M62.5 103.36 C84.82 76.03, 108.84 46.76, 127.45 28.64 M66.18 105.23 C89.54 76.48, 113.59 49.87, 130.47 31.26 M66.18 105.23 C81.93 86.46, 98.8 68.42, 130.47 31.26 M69.19 107.85 C86.13 87.15, 102.83 70.92, 133.49 33.89 M69.19 107.85 C91.12 83.83, 113.54 58.22, 133.49 33.89 M72.87 109.72 C92.41 87.39, 110.87 65.12, 137.16 35.76 M72.87 109.72 C97.75 82.91, 120.85 54.48, 137.16 35.76 M75.89 112.34 C100.83 84.78, 127.32 54.93, 140.18 38.38 M75.89 112.34 C93.72 92.12, 110.41 74.26, 140.18 38.38 M79.56 114.21 C96.26 99.41, 107.31 80.23, 143.2 41.01 M79.56 114.21 C95.43 97.33, 111.38 77.74, 143.2 41.01 M83.24 116.08 C103.21 92.36, 124.27 67.33, 146.88 42.88 M83.24 116.08 C102.92 93.28, 120.8 72.26, 146.88 42.88 M87.57 117.2 C103.65 100.47, 116.02 80.91, 149.89 45.5 M87.57 117.2 C108.44 93.05, 128.88 67.41, 149.89 45.5 M93.21 116.8 C111.93 95.92, 128.42 73.29, 152.91 48.12 M93.21 116.8 C115.08 91.07, 137.03 66.65, 152.91 48.12 M103.45 111.13 C124.24 88.9, 143.43 65.92, 156.59 49.99 M103.45 111.13 C118.24 94.23, 133.33 76.53, 156.59 49.99 M116.31 102.43 C127.12 89.42, 139.14 77.22, 159.61 52.62 M116.31 102.43 C129.81 88.02, 140.53 73.38, 159.61 52.62 M129.82 92.98 C142.57 79.19, 153.34 65.72, 162.63 55.24 M129.82 92.98 C136.89 84.84, 146.05 75.69, 162.63 55.24 M143.34 83.53 C151.24 75.02, 157.76 66.42, 165.64 57.87 M143.34 83.53 C149.36 77.23, 155.53 70.93, 165.64 57.87 M9.32 67.02 C9.32 67.02, 9.32 67.02, 9.32 67.02 M9.32 67.02 C9.32 67.02, 9.32 67.02, 9.32 67.02 M23.26 73.84 C17.05 68.53, 15.44 66.99, 7.41 60.07 M23.26 73.84 C19.35 70.35, 16.08 68.12, 7.41 60.07 M48.53 90.51 C34.08 76.33, 19.17 67.04, 8.53 55.73 M48.53 90.51 C33.51 77.55, 18.4 65.41, 8.53 55.73 M79.07 111.76 C58.86 93.47, 38.69 76.66, 11.15 52.72 M79.07 111.76 C64.89 99.17, 49.04 87.33, 11.15 52.72 M88.49 114.65 C68.26 93, 44 76.35, 14.53 50.35 M88.49 114.65 C60.3 89.2, 31.03 65.57, 14.53 50.35 M93.38 113.6 C76.54 97.96, 59.23 83.44, 17.91 47.99 M93.38 113.6 C72.54 94.5, 50.14 75.95, 17.91 47.99 M96.76 111.23 C78.32 97.88, 62.12 81.31, 21.29 45.63 M96.76 111.23 C74.18 90.05, 49.5 70.42, 21.29 45.63 M100.14 108.87 C79.12 91.15, 60.17 74.33, 24.67 43.26 M100.14 108.87 C85.25 97.35, 70.16 84.02, 24.67 43.26 M104.27 107.16 C81.18 87.46, 60.26 68.29, 28.04 40.9 M104.27 107.16 C86.88 91.38, 68.36 74.9, 28.04 40.9 M107.65 104.8 C86.66 84.95, 63.4 67.16, 31.42 38.54 M107.65 104.8 C87.75 87.67, 68.41 71.9, 31.42 38.54 M111.03 102.44 C91.65 86.91, 76.44 71.76, 34.8 36.18 M111.03 102.44 C80.01 76.77, 50.14 50.39, 34.8 36.18 M114.41 100.08 C86.36 76.76, 60.91 53.42, 38.18 33.81 M114.41 100.08 C90.79 79.78, 68.79 60.08, 38.18 33.81 M117.79 97.71 C92.8 78.47, 66.52 54.42, 41.56 31.45 M117.79 97.71 C93.05 75.91, 67.21 53.77, 41.56 31.45 M121.17 95.35 C102.16 76.36, 79.37 60.61, 44.94 29.09 M121.17 95.35 C94.59 73.6, 69.32 50.81, 44.94 29.09 M124.54 92.99 C96.15 65.6, 64.82 41.72, 48.32 26.73 M124.54 92.99 C94.84 65.21, 64.82 39.58, 48.32 26.73 M127.92 90.62 C96.98 66.99, 70.26 40.97, 51.7 24.36 M127.92 90.62 C105.54 70.78, 84.61 51.91, 51.7 24.36 M131.3 88.26 C114.53 72.47, 98.31 58.77, 55.08 22 M131.3 88.26 C114.08 73.66, 98.1 58.42, 55.08 22 M134.68 85.9 C117.29 72.1, 104.89 58.88, 58.46 19.64 M134.68 85.9 C116.27 69.41, 96.6 52.13, 58.46 19.64 M138.06 83.54 C108.99 59.39, 80.52 36.66, 61.83 17.27 M138.06 83.54 C121.28 68.93, 105.32 54.3, 61.83 17.27 M141.44 81.17 C122.62 67.54, 106.76 51.74, 65.21 14.91 M141.44 81.17 C124.88 66.42, 106.96 50.78, 65.21 14.91 M144.82 78.81 C119.41 57.67, 95.39 34.65, 68.59 12.55 M144.82 78.81 C118.94 56.42, 91.51 33.14, 68.59 12.55 M148.2 76.45 C126.11 57.63, 106.06 40.1, 71.97 10.19 M148.2 76.45 C131.64 63.37, 113.81 47.53, 71.97 10.19 M151.58 74.09 C125.68 51.03, 96.94 26.1, 74.6 7.17 M151.58 74.09 C130.73 56.95, 110.17 37.14, 74.6 7.17 M154.95 71.72 C130.93 47.16, 103.08 26.59, 78.73 5.46 M154.95 71.72 C132.33 51.88, 107.83 30.58, 78.73 5.46 M158.33 69.36 C139.35 50.06, 117.96 33.71, 82.86 3.75 M158.33 69.36 C138.4 53.54, 120.5 37.55, 82.86 3.75 M161.71 67 C137.52 43.74, 112.05 20.77, 89.26 4.02 M161.71 67 C134.28 44.25, 108.16 21, 89.26 4.02 M165.09 64.63 C146.75 48.37, 129.52 34.45, 93.39 2.31 M165.09 64.63 C147.56 49.1, 130.17 33.68, 93.39 2.31 M166.96 60.96 C155.83 51.92, 143.11 39.17, 111.11 12.41 M166.96 60.96 C145.71 42.62, 122.37 22.31, 111.11 12.41" stroke="#a5d8ff" stroke-width="0.5" fill="none"></path><path d="M108.75 15.25 M108.75 15.25 C126.35 26.66, 143.17 40.18, 150.25 45.75 M108.75 15.25 C126.04 27.9, 141.83 38.52, 150.25 45.75 M150.25 45.75 C173.66 60.03, 171.94 62.1, 150.25 76.25 M150.25 45.75 C172.59 62.06, 170.65 61.63, 150.25 76.25 M150.25 76.25 C140.73 82.37, 130.31 87.91, 108.75 104.75 M150.25 76.25 C140.8 82.41, 132.29 88.69, 108.75 104.75 M108.75 104.75 C86.77 119.09, 86.4 119.16, 65.25 104.75 M108.75 104.75 C87.46 121.41, 86.25 119.52, 65.25 104.75 M65.25 104.75 C49.6 95.53, 35.85 87.02, 21.75 76.25 M65.25 104.75 C52.95 96.99, 40.18 88.58, 21.75 76.25 M21.75 76.25 C-0.24 61.16, 1.96 62.27, 21.75 45.75 M21.75 76.25 C-0.01 61.45, -0.78 61.31, 21.75 45.75 M21.75 45.75 C37.06 34.64, 48.76 25.47, 65.25 15.25 M21.75 45.75 C33.92 36.91, 44.25 29.53, 65.25 15.25 M65.25 15.25 C86.88 -1.08, 88.34 -0.96, 108.75 15.25 M65.25 15.25 C88.97 -0.38, 86 0.32, 108.75 15.25" stroke="#1e1e1e" stroke-width="1" fill="none"></path></g><g transform="translate(84.9000015258789 344) rotate(0 32.099998474121094 25)"><text x="32.099998474121094" y="0" font-family="Virgil, Segoe UI Emoji" font-size="20px" fill="#1e1e1e" text-anchor="middle" style="white-space: pre;" direction="ltr" dominant-baseline="text-before-edge">App </text><text x="32.099998474121094" y="25" font-family="Virgil, Segoe UI Emoji" font-size="20px" fill="#1e1e1e" text-anchor="middle" style="white-space: pre;" direction="ltr" dominant-baseline="text-before-edge">Python</text></g><g stroke-linecap="round"><g transform="translate(127 304) rotate(0 60.381334658213916 -84.28727809299714)"><path d="M0.41 -0.56 C20.86 -28.76, 101.53 -140.74, 121.6 -168.82 M-0.84 1.75 C19.52 -26.78, 99.78 -141.55, 120.44 -170.33" stroke="#1e1e1e" stroke-width="1" fill="none"></path></g><g transform="translate(127 304) rotate(0 60.381334658213916 -84.28727809299714)"><path d="M7.63 -30.1 C8.93 -25.33, 6.86 -17.56, -0.24 -0.2 M9.45 -28.94 C6.87 -20.52, 3.62 -11.15, -0.23 -0.75" stroke="#1e1e1e" stroke-width="1" fill="none"></path></g><g transform="translate(127 304) rotate(0 60.381334658213916 -84.28727809299714)"><path d="M24.28 -18.09 C22.09 -15.76, 16.58 -10.47, -0.24 -0.2 M26.1 -16.94 C18.29 -12.34, 9.91 -6.67, -0.23 -0.75" stroke="#1e1e1e" stroke-width="1" fill="none"></path></g><g transform="translate(127 304) rotate(0 60.381334658213916 -84.28727809299714)"><path d="M111.6 -142.05 C116.04 -149.31, 117.3 -153.5, 119.8 -169.97 M113.42 -140.9 C115.34 -150.18, 117.04 -158.62, 119.81 -170.52" stroke="#1e1e1e" stroke-width="1" fill="none"></path></g><g transform="translate(127 304) rotate(0 60.381334658213916 -84.28727809299714)"><path d="M94.85 -153.91 C102.8 -158.76, 107.52 -160.5, 119.8 -169.97 M96.66 -152.75 C103.84 -158.26, 110.71 -163.05, 119.81 -170.52" stroke="#1e1e1e" stroke-width="1" fill="none"></path></g></g><mask></mask><g stroke-linecap="round"><g transform="translate(302 542) rotate(0 -52.30170566491694 -80.5629149930412)"><path d="M-1.12 0.36 C-3.27 -13.6, 5.27 -56.83, -12.11 -83.46 C-29.49 -110.1, -89.88 -146.63, -105.38 -159.44 M0.49 -0.49 C-1.37 -14.33, 7.74 -55.34, -9.98 -82.17 C-27.7 -109, -90.08 -148.61, -105.82 -161.49" stroke="#1e1e1e" stroke-width="1" fill="none"></path></g><g transform="translate(302 542) rotate(0 -52.30170566491694 -80.5629149930412)"><path d="M-11.45 -29.43 C-8.8 -16.34, -3.14 -5.81, -1.71 -0.82 M-12.17 -26.89 C-8.36 -20.42, -6.21 -11.07, -1.75 0.81" stroke="#1e1e1e" stroke-width="1" fill="none"></path></g><g transform="translate(302 542) rotate(0 -52.30170566491694 -80.5629149930412)"><path d="M9.06 -29.92 C4.3 -16.85, 2.55 -6.14, -1.71 -0.82 M8.35 -27.38 C6.2 -20.68, 2.4 -11.18, -1.75 0.81" stroke="#1e1e1e" stroke-width="1" fill="none"></path></g><g transform="translate(302 542) rotate(0 -52.30170566491694 -80.5629149930412)"><path d="M-76.4 -155 C-88.21 -155.4, -96.92 -157.98, -106.4 -162.67 M-77.11 -152.46 C-84.63 -156.34, -94.01 -157.51, -106.44 -161.04" stroke="#1e1e1e" stroke-width="1" fill="none"></path></g><g transform="translate(302 542) rotate(0 -52.30170566491694 -80.5629149930412)"><path d="M-88.5 -138.43 C-95.99 -144.7, -100.32 -153.27, -106.4 -162.67 M-89.21 -135.89 C-93.14 -144.63, -99 -150.6, -106.44 -161.04" stroke="#1e1e1e" stroke-width="1" fill="none"></path></g></g><mask></mask></svg>